<svg xmlns="http://www.w3.org/2000/svg" xmlns:xlink="http://www.w3.org/1999/xlink" width="233" zoomAndPan="magnify" viewBox="0 0 174.75 174.749997" height="233" preserveAspectRatio="xMidYMid meet" version="1.0"><defs><clipPath id="3b55410687"><path d="M 0 0 L 174.5 0 L 174.5 174.5 L 0 174.5 Z M 0 0 " clip-rule="nonzero"/></clipPath><clipPath id="ab26558727"><path d="M 0 0 L 174.5 0 L 174.5 174.5 L 0 174.5 Z M 0 0 " clip-rule="nonzero"/></clipPath></defs><g clip-path="url(#3b55410687)"><path fill="#ffffff" d="M 0 0 L 174.5 0 L 174.5 174.5 L 0 174.5 Z M 0 0 " fill-opacity="1" fill-rule="nonzero"/><path fill="#ffffff" d="M 0 0 L 174.5 0 L 174.5 174.5 L 0 174.5 Z M 0 0 " fill-opacity="1" fill-rule="nonzero"/></g><path fill="#38b6ff" d="M 110.035156 37.121094 L 64.539062 37.121094 C 49.46875 37.121094 37.195312 49.394531 37.195312 64.464844 L 37.195312 109.964844 C 37.195312 125.03125 49.46875 137.308594 64.539062 137.308594 L 110.035156 137.308594 C 125.105469 137.308594 137.378906 125.03125 137.378906 109.964844 L 137.378906 64.539062 C 137.378906 49.394531 125.105469 37.121094 110.035156 37.121094 Z M 128.78125 110.035156 C 128.78125 120.402344 120.402344 128.78125 110.035156 128.78125 L 64.539062 128.78125 C 54.171875 128.78125 45.71875 120.402344 45.71875 110.035156 L 45.71875 64.539062 C 45.71875 54.171875 54.171875 45.71875 64.539062 45.71875 L 110.035156 45.71875 C 120.402344 45.71875 128.78125 54.097656 128.78125 64.539062 Z M 128.78125 110.035156 " fill-opacity="1" fill-rule="nonzero"/><path fill="#38b6ff" d="M 120.769531 59.832031 C 120.769531 63.214844 118.046875 66.007812 114.59375 66.007812 C 111.210938 66.007812 108.417969 63.289062 108.417969 59.832031 C 108.417969 56.453125 111.140625 53.660156 114.59375 53.660156 C 118.046875 53.730469 120.769531 56.453125 120.769531 59.832031 Z M 120.769531 59.832031 " fill-opacity="1" fill-rule="nonzero"/><path fill="#38b6ff" d="M 87.25 61.742188 C 73.210938 61.742188 61.742188 73.210938 61.742188 87.25 C 61.742188 101.289062 73.210938 112.757812 87.25 112.757812 C 101.289062 112.757812 112.757812 101.289062 112.757812 87.25 C 112.757812 73.210938 101.363281 61.742188 87.25 61.742188 Z M 87.25 104.15625 C 77.914062 104.15625 70.34375 96.585938 70.34375 87.25 C 70.34375 77.914062 77.914062 70.34375 87.25 70.34375 C 96.585938 70.34375 104.15625 77.914062 104.15625 87.25 C 104.15625 96.585938 96.585938 104.15625 87.25 104.15625 Z M 87.25 104.15625 " fill-opacity="1" fill-rule="nonzero"/><g clip-path="url(#ab26558727)"><path fill="#38b6ff" d="M 87.25 174.5 C 39.179688 174.5 0 135.394531 0 87.25 C 0 39.179688 39.179688 0 87.25 0 C 135.394531 0 174.5 39.179688 174.5 87.25 C 174.5 135.394531 135.394531 174.5 87.25 174.5 Z M 87.25 4.777344 C 41.75 4.777344 4.777344 41.75 4.777344 87.25 C 4.777344 132.75 41.75 169.722656 87.25 169.722656 C 132.75 169.722656 169.722656 132.75 169.722656 87.25 C 169.722656 41.75 132.75 4.777344 87.25 4.777344 Z M 87.25 4.777344 " fill-opacity="1" fill-rule="nonzero"/></g></svg>