<svg xmlns="http://www.w3.org/2000/svg" xmlns:xlink="http://www.w3.org/1999/xlink" width="109" zoomAndPan="magnify" viewBox="0 0 81.75 79.499998" height="106" preserveAspectRatio="xMidYMid meet" version="1.0"><defs><clipPath id="5546856400"><path d="M 0.132812 0 L 81.371094 0 L 81.371094 79.003906 L 0.132812 79.003906 Z M 0.132812 0 " clip-rule="nonzero"/></clipPath><clipPath id="5a5c680455"><path d="M 0.132812 0 L 81.371094 0 L 81.371094 78.257812 L 0.132812 78.257812 Z M 0.132812 0 " clip-rule="nonzero"/></clipPath></defs><g clip-path="url(#5546856400)"><path fill="#ffffff" d="M 0.132812 0 L 81.371094 0 L 81.371094 79.003906 L 0.132812 79.003906 Z M 0.132812 0 " fill-opacity="1" fill-rule="nonzero"/><path fill="#ffffff" d="M 0.132812 0 L 81.371094 0 L 81.371094 79.003906 L 0.132812 79.003906 Z M 0.132812 0 " fill-opacity="1" fill-rule="nonzero"/></g><g clip-path="url(#5a5c680455)"><path fill="#00a0ff" d="M 81.015625 38.59375 C 81.371094 38.945312 81.371094 39.472656 81.015625 39.828125 L 43.441406 78.109375 C 43.265625 78.285156 43.089844 78.375 42.824219 78.375 L 37.179688 78.550781 C 36.914062 78.550781 36.738281 78.460938 36.5625 78.285156 C 36.382812 78.109375 36.296875 77.933594 36.296875 77.667969 L 36.296875 62.671875 C 36.296875 62.40625 36.382812 62.230469 36.5625 62.054688 L 59.320312 39.121094 L 36.382812 16.363281 C 36.207031 16.1875 36.121094 16.011719 36.121094 15.746094 L 36.121094 4.542969 C 36.121094 4.28125 36.296875 3.925781 36.5625 3.839844 L 42.207031 0.222656 C 42.472656 0.046875 42.734375 0.046875 43 0.132812 C 43.089844 0.132812 43.265625 0.222656 43.351562 0.308594 Z M 1.011719 78.550781 L 6.746094 78.375 C 7.011719 78.375 7.1875 78.285156 7.363281 78.109375 L 44.941406 39.828125 C 45.292969 39.472656 45.292969 38.945312 44.941406 38.59375 L 7.363281 0.308594 C 7.277344 0.222656 7.1875 0.132812 7.011719 0.132812 C 6.746094 0.046875 6.394531 0.046875 6.21875 0.222656 L 0.574219 3.839844 C 0.308594 3.925781 0.132812 4.28125 0.132812 4.542969 L 0.132812 15.746094 C 0.132812 16.011719 0.21875 16.1875 0.394531 16.363281 L 23.152344 39.121094 L 0.394531 62.054688 C 0.21875 62.230469 0.132812 62.40625 0.132812 62.671875 L 0.132812 77.667969 C 0.132812 77.933594 0.21875 78.109375 0.394531 78.285156 C 0.574219 78.460938 0.75 78.550781 1.011719 78.550781 Z M 1.011719 78.550781 " fill-opacity="1" fill-rule="nonzero"/></g></svg>